<svg width="40" height="40" viewBox="0 0 40 40" fill="none" xmlns="http://www.w3.org/2000/svg">
<path fill-rule="evenodd" clip-rule="evenodd" d="M23.3594 25C23.125 25 22.8125 24.7656 22.8125 24.4531C22.8125 24.1406 23.0469 23.9062 23.3594 23.9062C27.8906 23.5156 32.3438 22.5781 36.5625 21.0156V8.28125H3.75V21.0156C8.04688 22.6562 12.5 23.5938 17.0312 23.9062C17.4219 23.9062 17.5781 24.1406 17.5781 24.4531C17.5781 24.8438 17.2656 25 16.9531 25C12.1875 24.6875 7.42188 23.6719 2.96875 21.9531C2.73438 21.875 2.65625 21.6406 2.65625 21.4062V7.73438C2.65625 7.42188 2.89062 7.10938 3.20312 7.10938H37.1094C37.5 7.10938 37.7344 7.42188 37.7344 7.73438V21.4062C37.7344 21.6406 37.5781 21.875 37.3438 21.9531C32.9688 23.6719 28.2812 24.6875 23.5156 25C23.4375 25 23.4375 25 23.3594 25Z" fill="#CFA935"/>
<path fill-rule="evenodd" clip-rule="evenodd" d="M34.2188 35.3125H6.09375C5.78125 35.3125 5.46875 35 5.46875 34.6875V22.4219C5.46875 22.1094 5.78125 21.7969 6.09375 21.7969C6.40625 21.7969 6.64062 22.1094 6.64062 22.4219V34.1406H33.6719V22.4219C33.6719 22.1094 33.9844 21.7969 34.2969 21.7969C34.6094 21.7969 34.8438 22.1094 34.8438 22.4219V34.6875C34.7656 35 34.5312 35.3125 34.2188 35.3125Z" fill="#CFA935"/>
<path fill-rule="evenodd" clip-rule="evenodd" d="M13.2812 24.6094C12.9688 24.6094 12.6562 24.375 12.6562 24.0625V7.73438C12.6562 7.42188 12.9688 7.10938 13.2812 7.10938C13.5938 7.10938 13.8281 7.42188 13.8281 7.73438V24.0625C13.8281 24.375 13.5156 24.6094 13.2812 24.6094ZM9.60938 23.9062C9.29688 23.9062 8.98438 23.6719 8.98438 23.3594V7.73438C8.98438 7.42188 9.29688 7.10938 9.60938 7.10938C9.92188 7.10938 10.1562 7.42188 10.1562 7.73438V23.3594C10.1562 23.6719 9.92188 23.9062 9.60938 23.9062Z" fill="#CFA935"/>
<path fill-rule="evenodd" clip-rule="evenodd" d="M27.0312 24.6094C26.7188 24.6094 26.4844 24.375 26.4844 24.0625V7.73438C26.4844 7.42188 26.7188 7.10938 27.0312 7.10938C27.4219 7.10938 27.6562 7.42188 27.6562 7.73438V24.0625C27.6562 24.375 27.4219 24.6094 27.0312 24.6094ZM30.7031 23.9062C30.3906 23.9062 30.1562 23.6719 30.1562 23.3594V7.73438C30.1562 7.42188 30.3906 7.10938 30.7031 7.10938C31.0156 7.10938 31.3281 7.42188 31.3281 7.73438V23.3594C31.3281 23.6719 31.0156 23.9062 30.7031 23.9062Z" fill="#CFA935"/>
<path fill-rule="evenodd" clip-rule="evenodd" d="M22.7344 27.1875H17.7344C17.0312 27.1875 16.4062 26.6406 16.4062 25.9375V23.2031C16.4062 22.5 17.0312 21.875 17.7344 21.875H22.7344C23.4375 21.875 23.9844 22.5 23.9844 23.2031V25.9375C23.9844 26.6406 23.3594 27.1875 22.7344 27.1875ZM17.7344 23.0469C17.6562 23.0469 17.5781 23.125 17.5781 23.2031V25.9375C17.5781 26.0156 17.6562 26.0938 17.7344 26.0938H22.7344C22.8125 26.0938 22.8125 26.0156 22.8125 25.9375V23.2031C22.8125 23.125 22.8125 23.0469 22.7344 23.0469H17.7344Z" fill="#CFA935"/>
<path fill-rule="evenodd" clip-rule="evenodd" d="M26.5625 8.28125C26.25 8.28125 25.9375 8.04688 25.9375 7.73438V5C25.9375 3.59375 24.7656 2.34375 23.3594 2.34375H16.9531C15.4688 2.34375 14.2969 3.51562 14.2969 5V7.73438C14.2969 8.04688 14.0625 8.28125 13.75 8.28125C13.3594 8.28125 13.125 8.04688 13.125 7.73438V5C13.125 2.89062 14.8438 1.25 16.9531 1.25H23.3594C25.3906 1.25 27.1094 2.89062 27.1094 5V7.73438C27.1094 8.04688 26.875 8.28125 26.5625 8.28125ZM24.0625 8.28125C23.75 8.28125 23.4375 8.04688 23.4375 7.73438V5C23.4375 4.92188 23.3594 4.84375 23.3594 4.84375H16.9531C16.875 4.84375 16.7969 4.92188 16.7969 5V7.73438C16.7969 8.04688 16.5625 8.28125 16.25 8.28125C15.8594 8.28125 15.625 8.04688 15.625 7.73438V5C15.625 4.29688 16.25 3.75 16.9531 3.75H23.3594C23.9844 3.75 24.6094 4.29688 24.6094 5V7.73438C24.6094 8.04688 24.375 8.28125 24.0625 8.28125Z" fill="#CFA935"/>
<path fill-rule="evenodd" clip-rule="evenodd" d="M31.4844 29.6094H25.1562C24.8438 29.6094 24.5312 29.2969 24.5312 28.9844C24.5312 28.6719 24.8438 28.4375 25.1562 28.4375H31.4844C31.7969 28.4375 32.0312 28.6719 32.0312 28.9844C32.0312 29.2969 31.7969 29.6094 31.4844 29.6094Z" fill="#CFA935"/>
<path fill-rule="evenodd" clip-rule="evenodd" d="M31.4844 31.875H25.1562C24.8438 31.875 24.5312 31.6406 24.5312 31.25C24.5312 30.9375 24.8438 30.7031 25.1562 30.7031H31.4844C31.7969 30.7031 32.0312 30.9375 32.0312 31.25C32.0312 31.6406 31.7969 31.875 31.4844 31.875Z" fill="#CFA935"/>
<path fill-rule="evenodd" clip-rule="evenodd" d="M15.1562 29.6094H8.82812C8.51562 29.6094 8.28125 29.2969 8.28125 28.9844C8.28125 28.6719 8.51562 28.4375 8.82812 28.4375H15.1562C15.4688 28.4375 15.7031 28.6719 15.7031 28.9844C15.7031 29.2969 15.4688 29.6094 15.1562 29.6094Z" fill="#CFA935"/>
<path fill-rule="evenodd" clip-rule="evenodd" d="M15.1562 31.875H8.82812C8.51562 31.875 8.28125 31.6406 8.28125 31.25C8.28125 30.9375 8.51562 30.7031 8.82812 30.7031H15.1562C15.4688 30.7031 15.7031 30.9375 15.7031 31.25C15.7031 31.6406 15.4688 31.875 15.1562 31.875Z" fill="#CFA935"/>
<path fill-rule="evenodd" clip-rule="evenodd" d="M7.5 6.25C7.1875 6.25 6.95312 6.01562 6.95312 5.70312V1.40625C6.95312 1.09375 7.1875 0.859375 7.5 0.859375C7.89062 0.859375 8.125 1.17188 8.125 1.40625V5.70312C8.125 6.01562 7.89062 6.25 7.5 6.25Z" fill="#CFA935"/>
<path fill-rule="evenodd" clip-rule="evenodd" d="M9.6875 4.14062H5.39062C5.07812 4.14062 4.84375 3.90625 4.84375 3.59375C4.84375 3.20312 5.07812 2.96875 5.39062 2.96875H9.6875C10 2.96875 10.2344 3.20312 10.2344 3.59375C10.2344 3.90625 10 4.14062 9.6875 4.14062Z" fill="#CFA935"/>
<path fill-rule="evenodd" clip-rule="evenodd" d="M32.4219 5.39062C32.1094 5.39062 31.875 5.15625 31.875 4.84375V0.625C31.875 0.234375 32.1094 0 32.4219 0C32.7344 0 33.0469 0.234375 33.0469 0.625V4.84375C33.0469 5.15625 32.7344 5.39062 32.4219 5.39062Z" fill="#CFA935"/>
<path fill-rule="evenodd" clip-rule="evenodd" d="M34.6094 3.28125H30.3125C30 3.28125 29.6875 3.04688 29.6875 2.73438C29.6875 2.42188 30 2.10938 30.3125 2.10938H34.5312C34.8438 2.10938 35.1562 2.42188 35.1562 2.73438C35.1562 3.04688 34.8438 3.28125 34.6094 3.28125Z" fill="#CFA935"/>
<path fill-rule="evenodd" clip-rule="evenodd" d="M3.90625 39.5312C3.59375 39.5312 3.35938 39.2969 3.35938 38.9844V34.6875C3.35938 34.375 3.59375 34.1406 3.90625 34.1406C4.21875 34.1406 4.53125 34.375 4.53125 34.6875V38.9844C4.53125 39.2969 4.21875 39.5312 3.90625 39.5312Z" fill="#CFA935"/>
<path fill-rule="evenodd" clip-rule="evenodd" d="M6.09375 37.4219H1.79688C1.48438 37.4219 1.25 37.1875 1.25 36.875C1.25 36.5625 1.48438 36.25 1.79688 36.25H6.09375C6.40625 36.25 6.64062 36.5625 6.64062 36.875C6.64062 37.1875 6.32812 37.4219 6.09375 37.4219Z" fill="#CFA935"/>
<path fill-rule="evenodd" clip-rule="evenodd" d="M36.0938 40C35.7812 40 35.4688 39.7656 35.4688 39.375V35.1562C35.4688 34.8438 35.7812 34.5312 36.0938 34.5312C36.4062 34.5312 36.6406 34.8438 36.6406 35.1562V39.375C36.6406 39.7656 36.3281 40 36.0938 40Z" fill="#CFA935"/>
<path fill-rule="evenodd" clip-rule="evenodd" d="M38.2031 37.8906H33.9062C33.5938 37.8906 33.3594 37.5781 33.3594 37.2656C33.3594 36.9531 33.5938 36.7188 33.9062 36.7188H38.2031C38.5156 36.7188 38.75 36.9531 38.75 37.2656C38.75 37.5781 38.5156 37.8906 38.2031 37.8906Z" fill="#CFA935"/>
</svg>
